<svg width="36" height="36" viewBox="0 0 36 36" fill="none" xmlns="http://www.w3.org/2000/svg">
<path d="M0.766004 36C0.563855 36 0.3672 35.9201 0.221357 35.7726C0.0290958 35.5781 -0.0450619 35.2958 0.0271732 35.0318L2.36754 26.4856C0.910474 23.8508 0.142255 20.8702 0.143354 17.8445C0.147473 8.00491 8.15486 0 17.9937 0C22.7658 0.00192261 27.2499 1.86081 30.6202 5.23361C33.99 8.60669 35.8451 13.0905 35.8437 17.8588C35.8393 27.6987 27.8319 35.7042 17.9937 35.7042C17.9937 35.7042 17.9862 35.7042 17.986 35.7042C15.1122 35.7031 12.2632 35.0027 9.72645 33.6761L0.960187 35.975C0.895917 35.9918 0.830548 36 0.766004 36Z" fill="#E5E5E5"/>
<path d="M0.766113 35.2338L3.1897 26.3835C1.69473 23.7932 0.908386 20.8549 0.909485 17.8447C0.91333 8.42746 8.57684 0.765869 17.9938 0.765869C22.5635 0.767792 26.8529 2.54648 30.0785 5.77481C33.3038 9.00314 35.0794 13.2944 35.0778 17.8584C35.0737 27.2753 27.4091 34.938 17.9938 34.938C17.9932 34.938 17.994 34.938 17.9938 34.938H17.9864C15.1272 34.9369 12.318 34.2198 9.82269 32.8589L0.766113 35.2338ZM10.2421 29.767L10.7609 30.0744C12.9406 31.368 15.4397 32.0522 17.9883 32.0536H17.9938C25.8199 32.0536 32.1898 25.6848 32.1931 17.8573C32.1944 14.064 30.719 10.497 28.038 7.81387C25.3568 5.13074 21.792 3.65225 17.999 3.6506C10.1666 3.6506 3.79697 10.0186 3.79395 17.8458C3.79285 20.5281 4.54321 23.1401 5.96484 25.4005L6.30267 25.9377L4.86786 31.176L10.2421 29.767Z" fill="white"/>
<path d="M1.36035 34.6379L3.70016 26.0935C2.25656 23.593 1.49768 20.7561 1.4985 17.8505C1.50208 8.75931 8.90054 1.36304 17.9909 1.36304C22.403 1.36496 26.544 3.08212 29.6573 6.19867C32.7714 9.31522 34.4852 13.4579 34.4836 17.8634C34.4797 26.9549 27.081 34.352 17.9917 34.352C17.9909 34.352 17.992 34.352 17.9917 34.352H17.9843C15.2243 34.3509 12.512 33.6582 10.1033 32.3453L1.36035 34.6379Z" fill="url(#paint0_linear)"/>
<path d="M1 35.468L3.42358 26.6176C1.92862 24.0273 1.14227 21.089 1.14337 18.0788C1.14722 8.66159 8.81073 1 18.2277 1C22.7974 1.00192 27.0868 2.78061 30.3123 6.00894C33.5377 9.23727 35.3133 13.5285 35.3117 18.0925C35.3076 27.5095 27.6429 35.1721 18.2277 35.1721C18.2271 35.1721 18.2279 35.1721 18.2277 35.1721H18.2202C15.3611 35.171 12.5518 34.4539 10.0566 33.093L1 35.468ZM10.476 30.0012L10.9948 30.3085C13.1745 31.6021 15.6736 32.2863 18.2222 32.2877H18.2277C26.0538 32.2877 32.4236 25.9189 32.4269 18.0914C32.4283 14.2981 30.9528 10.7311 28.2719 8.048C25.5907 5.36487 22.0259 3.88638 18.2329 3.88473C10.4005 3.88473 4.03085 10.2527 4.02783 18.0799C4.02673 20.7622 4.7771 23.3742 6.19873 25.6346L6.53656 26.1719L5.10175 31.4102L10.476 30.0012Z" fill="white"/>
<path fill-rule="evenodd" clip-rule="evenodd" d="M13.9577 10.9388C13.638 10.228 13.3012 10.2137 12.9969 10.2013C12.7481 10.1906 12.4633 10.1912 12.179 10.1912C11.8944 10.1912 11.4319 10.2983 11.0408 10.7254C10.6494 11.1525 9.54639 12.1852 9.54639 14.2855C9.54639 16.3861 11.0762 18.4155 11.2896 18.7006C11.5031 18.9854 14.2428 23.4333 18.5815 25.1444C22.1875 26.5666 22.9211 26.2837 23.7039 26.2125C24.4867 26.1414 26.2294 25.1798 26.5851 24.1831C26.941 23.1863 26.941 22.3322 26.8342 22.1534C26.7274 21.9756 26.4428 21.8688 26.016 21.6554C25.5892 21.442 23.4905 20.409 23.0991 20.2667C22.7077 20.1242 22.4232 20.0533 22.1386 20.4807C21.8538 20.9075 21.0364 21.8688 20.7873 22.1534C20.5382 22.4387 20.2891 22.4744 19.8623 22.2607C19.4355 22.0468 18.0605 21.5963 16.4296 20.142C15.1607 19.0107 14.3037 17.6133 14.0546 17.1859C13.8058 16.7591 14.0505 16.5481 14.2422 16.3149C14.5875 15.895 15.1667 15.14 15.309 14.8554C15.4513 14.5703 15.3801 14.3212 15.2736 14.1075C15.1667 13.8941 14.337 11.7831 13.9577 10.9388Z" fill="white"/>
<defs>
<linearGradient id="paint0_linear" x1="17.922" y1="1.36304" x2="17.922" y2="34.6379" gradientUnits="userSpaceOnUse">
<stop stop-color="#64B161"/>
<stop offset="1" stop-color="#7ACB77"/>
</linearGradient>
</defs>
</svg>
