<svg width="23" height="30" viewBox="0 0 23 30" fill="none" xmlns="http://www.w3.org/2000/svg">
<path d="M19.3997 0H2.88613C1.29473 0 0 1.29473 0 2.88613V27.1149C0 28.7063 1.29473 30.001 2.88613 30.001H19.3997C20.9911 30.001 22.2858 28.7063 22.2858 27.1149V2.88613C22.2858 1.29473 20.9911 0 19.3997 0ZM3.95574 4.98626C3.95574 4.50085 4.34927 4.10733 4.83467 4.10733H17.4511C17.9365 4.10733 18.33 4.50085 18.33 4.98626V6.72175C18.33 7.20715 17.9365 7.60068 17.4511 7.60068H4.83467C4.34927 7.60068 3.95574 7.20715 3.95574 6.72175V4.98626ZM6.91488 24.7225C6.91488 25.2079 6.52135 25.6014 6.03594 25.6014H4.83473C4.34932 25.6014 3.9558 25.2079 3.9558 24.7225V23.8897C3.9558 23.4043 4.34932 23.0108 4.83473 23.0108H6.03594C6.52135 23.0108 6.91488 23.4043 6.91488 23.8897V24.7225ZM6.91488 19.5209C6.91488 20.0063 6.52135 20.3999 6.03594 20.3999H4.83473C4.34932 20.3999 3.9558 20.0063 3.9558 19.5209V18.6882C3.9558 18.2028 4.34932 17.8092 4.83473 17.8092H6.03594C6.52135 17.8092 6.91488 18.2028 6.91488 18.6882V19.5209ZM12.6945 24.7225C12.6945 25.2079 12.3009 25.6014 11.8155 25.6014H10.6143C10.1289 25.6014 9.73538 25.2079 9.73538 24.7225V23.8897C9.73538 23.4043 10.1289 23.0108 10.6143 23.0108H11.8155C12.3009 23.0108 12.6945 23.4043 12.6945 23.8897V24.7225ZM12.6945 19.5209C12.6945 20.0063 12.3009 20.3999 11.8155 20.3999H10.6143C10.1289 20.3999 9.73538 20.0063 9.73538 19.5209V18.6882C9.73538 18.2028 10.1289 17.8092 10.6143 17.8092H11.8155C12.3009 17.8092 12.6945 18.2028 12.6945 18.6882V19.5209ZM12.6945 14.3193C12.6945 14.8048 12.3009 15.1983 11.8155 15.1983H4.83467C4.34927 15.1983 3.95574 14.8047 3.95574 14.3193V13.4866C3.95574 13.0012 4.34927 12.6076 4.83467 12.6076H11.8155C12.3009 12.6076 12.6945 13.0012 12.6945 13.4866V14.3193ZM18.4741 24.7225C18.4741 25.2079 18.0805 25.6014 17.5951 25.6014H16.3939C15.9085 25.6014 15.515 25.2079 15.515 24.7225V23.8897C15.515 23.4043 15.9085 23.0108 16.3939 23.0108H17.5951C18.0805 23.0108 18.4741 23.4043 18.4741 23.8897V24.7225ZM18.4741 19.5209C18.4741 20.0063 18.0805 20.3999 17.5951 20.3999H16.3939C15.9085 20.3999 15.515 20.0063 15.515 19.5209V18.6882C15.515 18.2028 15.9085 17.8092 16.3939 17.8092H17.5951C18.0805 17.8092 18.4741 18.2028 18.4741 18.6882V19.5209ZM18.4741 14.3193C18.4741 14.8048 18.0805 15.1983 17.5951 15.1983H16.3939C15.9085 15.1983 15.515 14.8047 15.515 14.3193V13.4866C15.515 13.0012 15.9085 12.6076 16.3939 12.6076H17.5951C18.0805 12.6076 18.4741 13.0012 18.4741 13.4866V14.3193Z" fill="white"/>
</svg>
