<svg width="100" height="63" viewBox="0 0 100 63" fill="none" xmlns="http://www.w3.org/2000/svg">
<path d="M57.235 0H35.8433L46.5207 18.6119L67.9125 55.8174L71.668 49.3005L52.1356 15.3535L47.073 6.51694H57.235H96.263L100 0H57.235Z" fill="#E56E55"/>
<path d="M56.6826 12.0952L62.2975 21.8706L74.8711 43.7226L78.6083 37.2057L67.9124 18.6122H89.3041L93.0413 12.0952H67.9124H56.6826Z" fill="white"/>
<path d="M42.7835 25.2943L32.0877 6.68237L21.3918 25.2943L0 62.4998H7.49264L26.9882 28.5528L32.0877 19.7163L37.1687 28.5528L56.6827 62.4998H64.1569L42.7835 25.2943Z" fill="white"/>
<path d="M32.0879 30.8726L26.4731 40.6296L13.8994 62.5H21.3921L32.0879 43.888L42.7838 62.5H50.258L37.7028 40.6296L32.0879 30.8726Z" fill="#E56E55"/>
</svg>
