<svg width="36" height="36" viewBox="0 0 36 36" fill="none" xmlns="http://www.w3.org/2000/svg">
<circle cx="18" cy="18" r="18" fill="url(#paint0_linear)"/>
<path fill-rule="evenodd" clip-rule="evenodd" d="M14.5595 11.604C14.3016 11.0297 14.0298 11.0182 13.7843 11.0082C13.5835 10.9996 13.3537 11 13.1243 11C12.8947 11 12.5215 11.0865 12.2059 11.4316C11.89 11.7766 11 12.6109 11 14.3076C11 16.0046 12.2345 17.6441 12.4067 17.8744C12.5789 18.1045 14.7896 21.6976 18.2906 23.08C21.2003 24.2289 21.7923 24.0003 22.4239 23.9429C23.0555 23.8854 24.4618 23.1086 24.7488 22.3034C25.036 21.4982 25.036 20.8081 24.9498 20.6637C24.8636 20.5201 24.634 20.4338 24.2895 20.2614C23.9451 20.089 22.2517 19.2545 21.9359 19.1395C21.6201 19.0244 21.3905 18.9671 21.1609 19.3124C20.931 19.6572 20.2715 20.4338 20.0705 20.6637C19.8695 20.8942 19.6684 20.923 19.324 20.7504C18.9796 20.5776 17.8702 20.2137 16.5542 19.0388C15.5302 18.1249 14.8388 16.9959 14.6378 16.6507C14.437 16.3059 14.6344 16.1355 14.7891 15.9471C15.0677 15.6078 15.5351 14.9979 15.6499 14.768C15.7647 14.5377 15.7073 14.3365 15.6213 14.1638C15.5351 13.9914 14.8656 12.286 14.5595 11.604Z" fill="white"/>
<defs>
<linearGradient id="paint0_linear" x1="18" y1="0" x2="18" y2="36" gradientUnits="userSpaceOnUse">
<stop stop-color="#64B161"/>
<stop offset="1" stop-color="#7ACB77"/>
</linearGradient>
</defs>
</svg>
