<svg width="25" height="25" viewBox="0 0 25 25" fill="none" xmlns="http://www.w3.org/2000/svg">
<path d="M16.792 2.0089L5.44697 7.81735L0.9375 5.59856L12.0825 0.0953145C12.3325 -0.0317715 12.6325 -0.0317715 12.895 0.0953145L16.792 2.0089Z" fill="white"/>
<path d="M24.0506 5.59852L12.5066 11.3174L8.18361 9.18714L7.55859 8.86943L18.9161 3.06201L19.5411 3.37868L24.0506 5.59852Z" fill="white"/>
<path d="M11.5815 12.9655L11.569 25.0001L0.512511 19.2302C0.200004 19.0656 0 18.7354 0 18.3801V7.24658L4.68552 9.55496V13.6134C4.68552 14.1332 5.11052 14.5644 5.62303 14.5644C6.13555 14.5644 6.56055 14.1332 6.56055 13.6134V10.4935L7.18557 10.7977L11.5815 12.9655Z" fill="white"/>
<path d="M24.9878 7.25903L13.4563 12.9529L13.4438 24.9875L25.0003 18.953L24.9878 7.25903Z" fill="white"/>
</svg>
